<?xml version="1.0" encoding="utf-8"?>
<!-- Generator: Adobe Illustrator 24.0.0, SVG Export Plug-In . SVG Version: 6.00 Build 0)  -->
<svg version="1.1" id="Layer_1" xmlns="http://www.w3.org/2000/svg" xmlns:xlink="http://www.w3.org/1999/xlink" x="0px" y="0px"
	 viewBox="0 0 24 25" style="enable-background:new 0 0 24 25;" xml:space="preserve">
<title>autoplay</title>
<desc>Created with Sketch.</desc>
<path d="M21.3,1.5c-0.3-0.1-0.7,0.1-0.8,0.5c-0.2,0.9-0.5,1.8-1,2.5C19.1,5,18.4,5.3,17.8,5c-0.4-0.2-0.7-0.7-1-1.6
	c0-0.1-0.1-0.2-0.1-0.3c-0.2-0.7-0.4-1.5-0.9-2.2c-0.9-1.1-3-1.2-4.1-0.3C10.9,1.2,10.4,2,10.2,3c-0.2,0.8-0.1,2.1,0,3H8v2
	c-3.4,1.2-5.8,4.4-5.8,8.2c0,4.8,3.9,8.8,8.8,8.8c4.8,0,8.8-3.9,8.8-8.8c0-3.8-2.4-7-5.8-8.2V6h-2.5c-0.1-0.9-0.2-2.1,0-2.7
	c0.2-0.7,0.5-1.2,1-1.7c0.6-0.5,1.9-0.4,2.4,0.1c0.4,0.4,0.5,1,0.7,1.7c0,0.1,0.1,0.2,0.1,0.4c0.2,0.8,0.6,1.9,1.6,2.4
	c1.2,0.6,2.6,0,3.3-0.9c0.7-0.9,1-2,1.2-3C21.9,1.9,21.7,1.5,21.3,1.5z M4.9,15.2c-0.3,2.4,0.4,4.6,1.7,5.7C4.7,20.3,3.6,17.7,4,15
	c0.4-3,2.5-5.2,4.7-4.9l0,0C6.9,10.5,5.3,12.6,4.9,15.2z"/>
</svg>
