<?xml version="1.0" encoding="utf-8"?>
<!-- Generator: Adobe Illustrator 24.0.0, SVG Export Plug-In . SVG Version: 6.00 Build 0)  -->
<svg version="1.1" id="Layer_1" xmlns="http://www.w3.org/2000/svg" xmlns:xlink="http://www.w3.org/1999/xlink" x="0px" y="0px"
	 viewBox="0 0 24 25" style="enable-background:new 0 0 24 25;" xml:space="preserve">
<style type="text/css">
	.st0{fill:#D0041B;filter: drop-shadow(0px 1px 1px #a40a1c)}
	.st1{fill:url(#SVGID_1_);}
	.st2{fill:#FEEE80;}
</style>
<title>autoplay</title>
<desc>Created with Sketch.</desc>
<polygon class="st0" points="13.2,0.4 14.5,7.1 20.7,4.2 17.4,10.2 24,12 17.6,14.4 21.5,20 15.1,17.8 14.5,24.6 11,18.7 6.2,23.6 
	7.2,16.8 0.4,17.4 5.6,12.9 0,9 6.8,8.9 5.1,2.3 10.4,6.6 "/>
<linearGradient id="SVGID_1_" gradientUnits="userSpaceOnUse" x1="12" y1="6.188" x2="12" y2="18.7728">
	<stop  offset="0" style="stop-color:#F9C151"/>
	<stop  offset="1" style="stop-color:#F67E29"/>
</linearGradient>
<polygon class="st1" points="12.7,5.8 13.4,9.5 16.9,7.9 15,11.2 18.7,12.2 15.1,13.6 17.3,16.7 13.7,15.4 13.4,19.2 11.4,16 
	8.7,18.7 9.4,14.9 5.6,15.2 8.4,12.7 5.3,10.6 9.1,10.5 8.1,6.8 11.1,9.2 "/>
<polygon class="st2" points="11.2,11.4 11.8,11.9 12.1,11.2 12.3,11.9 12.9,11.6 12.6,12.2 13.3,12.4 12.6,12.7 13.1,13.3 
	12.4,13.1 12.3,13.8 11.9,13.2 11.4,13.8 11.5,13 10.8,13.1 11.3,12.6 10.7,12.2 11.4,12.1 "/>
</svg>
