<?xml version="1.0" encoding="utf-8"?>
<!-- Generator: Adobe Illustrator 24.0.0, SVG Export Plug-In . SVG Version: 6.00 Build 0)  -->
<svg version="1.1" id="Layer_1" xmlns="http://www.w3.org/2000/svg" xmlns:xlink="http://www.w3.org/1999/xlink" x="0px" y="0px"
	 viewBox="0 0 24 25" style="enable-background:new 0 0 24 25;" xml:space="preserve">
<style type="text/css">
	.st0{fill:url(#SVGID_1_);}
	path {filter: drop-shadow(0px 1px 1px #ab5a00);}
</style>
<title>autoplay</title>
<desc>Created with Sketch.</desc>
<linearGradient id="SVGID_1_" gradientUnits="userSpaceOnUse" x1="3.4551" y1="23.0537" x2="20.4257" y2="6.0831">
	<stop  offset="0" style="stop-color:#FDEDCB"/>
	<stop  offset="1" style="stop-color:#FDFBF5"/>
</linearGradient>
<path class="st0" d="M23.4,9l-6.6-1.1c-0.2,0-0.4-0.2-0.6-0.4l-3.5-6.6c-0.3-0.5-1.1-0.5-1.4,0L7.8,7.5C7.7,7.7,7.5,7.9,7.3,7.9
	L0.6,9C0,9.1-0.2,9.8,0.2,10.3l5.1,5.5c0.2,0.2,0.2,0.4,0.2,0.6l-1.1,7.2c-0.1,0.6,0.5,1.1,1.1,0.8l6.2-2.6c0.2-0.1,0.4-0.1,0.6,0
	l6.2,2.6c0.6,0.2,1.1-0.2,1.1-0.8l-1.1-7.2c0-0.2,0-0.5,0.2-0.6l5.1-5.5C24.2,9.8,24,9.1,23.4,9z"/>
</svg>
